frame=    0 fps=0.0 q=0.0 size=       0kB time=00:00:00.41 bitrate=   0.0kbits/s speed=0.83x    frame=    0 fps=0.0 q=0.0 size=       0kB time=00:00:00.89 bitrate=   0.0kbits/s speed=0.895x    frame=   29 fps= 19 q=15.8 size=     124kB time=00:00:01.42 bitrate= 713.1kbits/s speed=0.948x    frame=   29 fps= 14 q=15.8 size=     124kB time=00:00:01.90 bitrate= 533.3kbits/s speed=0.947x    frame=   60 fps= 24 q=16.1 size=     170kB time=00:00:02.40 bitrate= 578.0kbits/s speed=0.956x    frame=   60 fps= 20 q=16.1 size=     170kB time=00:00:02.93 bitrate= 474.0kbits/s speed=0.972x    frame=   91 fps= 26 q=19.0 size=     224kB time=00:00:03.43 bitrate= 534.4kbits/s speed=0.975x    frame=   91 fps= 23 q=19.0 size=     224kB time=00:00:03.94 bitrate= 466.1kbits/s speed=0.978x    frame=  122 fps= 27 q=17.5 size=     276kB time=00:00:04.44 bitrate= 508.2kbits/s speed=0.98x    frame=  122 fps= 24 q=17.5 size=     276kB time=00:00:04.95 bitrate= 456.4kbits/s speed=0.982x    frame=  153 fps= 28 q=19.8 size=     313kB time=00:00:05.45 bitrate= 469.4kbits/s speed=0.983x    frame=  153 fps= 25 q=19.8 size=     313kB time=00:00:05.95 bitrate= 429.7kbits/s speed=0.985x    frame=  183 fps= 28 q=22.6 size=     358kB time=00:00:06.43 bitrate= 455.4kbits/s speed=0.983x    frame=  183 fps= 26 q=22.6 size=     358kB time=00:00:06.96 bitrate= 420.9kbits/s speed=0.987x    frame=  214 fps= 28 q=24.6 size=     392kB time=00:00:07.47 bitrate= 429.6kbits/s speed=0.988x    frame=  214 fps= 27 q=24.6 size=     392kB time=00:00:07.97 bitrate= 402.4kbits/s speed=0.989x    frame=  245 fps= 29 q=24.9 size=     434kB time=00:00:08.47 bitrate= 419.7kbits/s speed=0.99x    frame=  245 fps= 27 q=24.9 size=     434kB time=00:00:08.95 bitrate= 397.2kbits/s speed=0.988x    frame=  275 fps= 29 q=27.7 size=     467kB time=00:00:09.48 bitrate= 403.0kbits/s speed=0.991x    frame=  275 fps= 27 q=27.7 size=     467kB time=00:00:09.96 bitrate= 383.6kbits/s speed=0.989x    frame=  306 fps= 29 q=25.2 size=     507kB time=00:00:10.47 bitrate= 396.3kbits/s speed=0.99x    frame=  307 fps= 28 q=25.7 size=     507kB time=00:00:10.97 bitrate= 378.4kbits/s speed=0.99x    frame=  337 fps= 29 q=24.8 size=     546kB time=00:00:11.50 bitrate= 388.8kbits/s speed=0.992x    frame=  339 fps= 28 q=31.0 size=     547kB time=00:00:11.98 bitrate= 373.9kbits/s speed=0.991x    frame=  368 fps= 29 q=23.2 size=     574kB time=00:00:12.51 bitrate= 376.1kbits/s speed=0.993x    frame=  372 fps= 28 q=23.4 size=     575kB time=00:00:12.96 bitrate= 363.5kbits/s speed=0.989x    frame=  399 fps= 29 q=31.0 size=     614kB time=00:00:13.51 bitrate= 371.9kbits/s speed=0.993x    frame=  405 fps= 29 q=31.0 size=     616kB time=00:00:13.97 bitrate= 361.2kbits/s speed=0.99x    frame=  430 fps= 29 q=30.7 size=     643kB time=00:00:14.50 bitrate= 363.5kbits/s speed=0.992x    frame=  436 fps= 29 q=27.9 size=     654kB time=00:00:14.98 bitrate= 357.8kbits/s speed=0.991x    frame=  461 fps= 30 q=31.0 size=     681kB time=00:00:15.53 bitrate= 359.1kbits/s speed=0.994x    frame=  465 fps= 29 q=31.0 size=     682kB time=00:00:15.99 bitrate= 349.5kbits/s speed=0.992x    frame=  492 fps= 30 q=29.4 size=     708kB time=00:00:16.54 bitrate= 350.5kbits/s speed=0.995x    frame=  496 fps= 29 q=31.0 size=     718kB time=00:00:16.99 bitrate= 346.1kbits/s speed=0.992x    frame=  523 fps= 30 q=25.5 size=     744kB time=00:00:17.46 bitrate= 349.0kbits/s speed=0.991x    frame=  529 fps= 29 q=21.7 size=     755kB time=00:00:17.98 bitrate= 344.0kbits/s speed=0.992x    frame=  554 fps= 30 q=31.0 size=     780kB time=00:00:18.50 bitrate= 345.4kbits/s speed=0.992x    frame=  565 fps= 30 q=24.8 size=     792kB time=00:00:18.99 bitrate= 341.7kbits/s speed=0.992x    frame=  584 fps= 30 q=28.8 size=     806kB time=00:00:19.50 bitrate= 338.5kbits/s speed=0.992x    frame=  591 fps= 29 q=31.0 size=     816kB time=00:00:19.99 bitrate= 334.4kbits/s speed=0.992x    frame=  615 fps= 30 q=31.0 size=     842kB time=00:00:20.53 bitrate= 335.8kbits/s speed=0.994x    frame=  622 fps= 29 q=31.0 size=     844kB time=00:00:21.00 bitrate= 329.1kbits/s speed=0.993x    frame=  645 fps= 30 q=31.0 size=     868kB time=00:00:21.53 bitrate= 330.3kbits/s speed=0.994x    frame=  655 fps= 30 q=31.0 size=     880kB time=00:00:21.99 bitrate= 327.8kbits/s speed=0.992x    frame=  675 fps= 30 q=31.0 size=     905kB time=00:00:22.53 bitrate= 329.1kbits/s speed=0.994x    frame=  686 fps= 30 q=31.0 size=     917kB time=00:00:22.99 bitrate= 326.5kbits/s speed=0.992x    frame=  705 fps= 30 q=31.0 size=     930kB time=00:00:23.53 bitrate= 323.7kbits/s speed=0.994x    frame=  719 fps= 30 q=31.0 size=     941kB time=00:00:24.00 bitrate= 321.2kbits/s speed=0.993x    frame=  736 fps= 30 q=31.0 size=     963kB time=00:00:24.56 bitrate= 321.0kbits/s speed=0.995x    frame=  751 fps= 30 q=31.0 size=     978kB time=00:00:25.06 bitrate= 319.4kbits/s speed=0.995x    frame=  766 fps= 30 q=31.0 size=     991kB time=00:00:25.56 bitrate= 317.4kbits/s speed=0.994x    frame=  781 fps= 30 q=24.8 size=    1012kB time=00:00:26.06 bitrate= 318.1kbits/s speed=0.994x    frame=  796 fps= 30 q=31.0 size=    1026kB time=00:00:26.56 bitrate= 316.4kbits/s speed=0.994x    frame=  811 fps= 30 q=31.0 size=    1039kB time=00:00:27.06 bitrate= 314.6kbits/s speed=0.994x    frame=  827 fps= 30 q=31.0 size=    1052kB time=00:00:27.60 bitrate= 312.2kbits/s speed=0.996x    frame=  842 fps= 30 q=31.0 size=    1073kB time=00:00:28.10 bitrate= 312.7kbits/s speed=0.996x    frame=  857 fps= 30 q=31.0 size=    1084kB time=00:00:28.60 bitrate= 310.6kbits/s speed=0.995x    frame=  872 fps= 30 q=31.0 size=    1096kB time=00:00:29.10 bitrate= 308.5kbits/s speed=0.995x    frame=  887 fps= 30 q=31.0 size=    1108kB time=00:00:29.60 bitrate= 306.6kbits/s speed=0.995x    frame=  902 fps= 30 q=31.0 size=    1129kB time=00:00:30.10 bitrate= 307.2kbits/s speed=0.995x    frame=  917 fps= 30 q=31.0 size=    1141kB time=00:00:30.60 bitrate= 305.5kbits/s speed=0.995x    frame=  926 fps= 30 q=31.0 size=    1152kB time=00:00:31.15 bitrate= 303.0kbits/s speed=0.997x    frame=  926 fps= 29 q=31.0 size=    1152kB time=00:00:31.66 bitrate= 298.1kbits/s speed=0.997x    frame=  957 fps= 30 q=31.0 size=    1179kB time=00:00:32.04 bitrate= 301.5kbits/s speed=0.993x    frame=  957 fps= 29 q=31.0 size=    1179kB time=00:00:32.69 bitrate= 295.5kbits/s speed=0.998x    frame=  988 fps= 30 q=31.0 size=    1216kB time=00:00:33.05 bitrate= 301.4kbits/s speed=0.993x    frame=  988 fps= 29 q=31.0 size=    1216kB time=00:00:33.70 bitrate= 295.6kbits/s speed=0.998x    frame= 1019 fps= 30 q=31.0 size=    1244kB time=00:00:34.18 bitrate= 298.0kbits/s speed=0.997x    frame= 1019 fps= 29 q=31.0 size=    1244kB time=00:00:34.68 bitrate= 293.7kbits/s speed=0.997x    frame= 1048 fps= 30 q=31.0 size=    1282kB time=00:00:35.04 bitrate= 299.8kbits/s speed=0.993x    frame= 1050 fps= 29 q=31.0 size=    1283kB time=00:00:35.69 bitrate= 294.5kbits/s speed=0.997x    frame= 1081 fps= 30 q=24.8 size=    1322kB time=00:00:36.19 bitrate= 299.3kbits/s speed=0.997x    frame= 1081 fps= 29 q=24.8 size=    1322kB time=00:00:36.70 bitrate= 295.1kbits/s speed=0.997x    frame= 1111 fps= 30 q=31.0 size=    1351kB time=00:00:37.06 bitrate= 298.7kbits/s speed=0.994x    frame= 1112 fps= 29 q=31.0 size=    1352kB time=00:00:37.71 bitrate= 293.6kbits/s speed=0.998x    frame= 1143 fps= 30 q=31.0 size=    1390kB time=00:00:38.21 bitrate= 298.0kbits/s speed=0.998x    frame= 1143 fps= 29 q=31.0 size=    1390kB time=00:00:38.71 bitrate= 294.1kbits/s speed=0.997x    frame= 1174 fps= 30 q=31.0 size=    1418kB time=00:00:39.16 bitrate= 296.5kbits/s speed=0.996x    frame= 1174 fps= 29 q=31.0 size=    1418kB time=00:00:39.72 bitrate= 292.3kbits/s speed=0.998x    frame= 1200 fps= 30 q=31.0 size=    1444kB time=00:00:40.03 bitrate= 295.5kbits/s speed=0.993x    frame= 1205 fps= 30 q=31.0 size=    1455kB time=00:00:40.75 bitrate= 292.5kbits/s speed=0.998x    frame= 1235 fps= 30 q=31.0 size=    1481kB time=00:00:41.20 bitrate= 294.4kbits/s speed=0.997x    frame= 1236 fps= 30 q=31.0 size=    1481kB time=00:00:41.76 bitrate= 290.4kbits/s speed=0.998x    frame= 1265 fps= 30 q=31.0 size=    1517kB time=00:00:42.20 bitrate= 294.5kbits/s speed=0.997x    frame= 1267 fps= 30 q=31.0 size=    1518kB time=00:00:42.75 bitrate= 290.8kbits/s speed=0.998x    frame= 1296 fps= 30 q=31.0 size=    1543kB time=00:00:43.23 bitrate= 292.3kbits/s speed=0.997x    frame= 1298 fps= 30 q=31.0 size=    1552kB time=00:00:43.75 bitrate= 290.6kbits/s speed=0.998x    frame= 1326 fps= 30 q=31.0 size=    1579kB time=00:00:44.23 bitrate= 292.4kbits/s speed=0.997x    frame= 1329 fps= 30 q=31.0 size=    1580kB time=00:00:44.79 bitrate= 288.9kbits/s speed=0.998x    frame= 1356 fps= 30 q=31.0 size=    1607kB time=00:00:45.23 bitrate= 291.0kbits/s speed=0.997x    frame= 1360 fps= 30 q=31.0 size=    1617kB time=00:00:45.79 bitrate= 289.2kbits/s speed=0.998x    frame= 1387 fps= 30 q=31.0 size=    1643kB time=00:00:46.26 bitrate= 290.9kbits/s speed=0.998x    frame= 1391 fps= 30 q=31.0 size=    1646kB time=00:00:46.78 bitrate= 288.2kbits/s speed=0.998x    frame= 1417 fps= 30 q=24.8 size=    1682kB time=00:00:47.26 bitrate= 291.6kbits/s speed=0.997x    frame= 1422 fps= 30 q=31.0 size=    1684kB time=00:00:47.81 bitrate= 288.6kbits/s speed=0.998x    frame= 1447 fps= 30 q=31.0 size=    1711kB time=00:00:48.26 bitrate= 290.3kbits/s speed=0.997x    frame= 1453 fps= 30 q=24.8 size=    1722kB time=00:00:48.82 bitrate= 288.9kbits/s speed=0.998x    frame= 1477 fps= 30 q=24.8 size=    1748kB time=00:00:49.26 bitrate= 290.7kbits/s speed=0.997x    frame= 1484 fps= 30 q=31.0 size=    1751kB time=00:00:49.83 bitrate= 287.8kbits/s speed=0.998x    frame= 1508 fps= 30 q=31.0 size=    1778kB time=00:00:50.30 bitrate= 289.5kbits/s speed=0.998x    frame= 1515 fps= 30 q=31.0 size=    1789kB time=00:00:50.81 bitrate= 288.4kbits/s speed=0.998x    frame= 1538 fps= 30 q=31.0 size=    1817kB time=00:00:51.30 bitrate= 290.2kbits/s speed=0.997x    frame= 1546 fps= 30 q=31.0 size=    1819kB time=00:00:51.84 bitrate= 287.4kbits/s speed=0.998x    frame= 1568 fps= 30 q=31.0 size=    1842kB time=00:00:52.30 bitrate= 288.5kbits/s speed=0.997x    frame= 1577 fps= 30 q=31.0 size=    1855kB time=00:00:52.85 bitrate= 287.4kbits/s speed=0.998x    frame= 1599 fps= 30 q=31.0 size=    1878kB time=00:00:53.33 bitrate= 288.5kbits/s speed=0.998x    frame= 1608 fps= 30 q=31.0 size=    1881kB time=00:00:53.86 bitrate= 286.1kbits/s speed=0.998x    frame= 1629 fps= 30 q=31.0 size=    1904kB time=00:00:54.33 bitrate= 287.1kbits/s speed=0.998x    frame= 1639 fps= 30 q=31.0 size=    1916kB time=00:00:54.87 bitrate= 286.0kbits/s speed=0.998x    frame= 1659 fps= 30 q=31.0 size=    1940kB time=00:00:55.33 bitrate= 287.2kbits/s speed=0.998x    frame= 1670 fps= 30 q=31.0 size=    1953kB time=00:00:55.87 bitrate= 286.3kbits/s speed=0.998x    frame= 1690 fps= 30 q=31.0 size=    1967kB time=00:00:56.36 bitrate= 285.9kbits/s speed=0.998x    frame= 1701 fps= 30 q=31.0 size=    1980kB time=00:00:56.88 bitrate= 285.1kbits/s speed=0.998x    frame= 1720 fps= 30 q=31.0 size=    2003kB time=00:00:57.36 bitrate= 286.1kbits/s speed=0.998x    frame= 1732 fps= 30 q=31.0 size=    2015kB time=00:00:57.89 bitrate= 285.2kbits/s speed=0.998x    frame= 1750 fps= 30 q=31.0 size=    2032kB time=00:00:58.36 bitrate= 285.2kbits/s speed=0.998x    frame= 1763 fps= 30 q=31.0 size=    2044kB time=00:00:58.90 bitrate= 284.2kbits/s speed=0.998x    frame= 1781 fps= 30 q=31.0 size=    2066kB time=00:00:59.40 bitrate= 285.0kbits/s speed=0.998x    frame= 1794 fps= 30 q=31.0 size=    2079kB time=00:00:59.91 bitrate= 284.2kbits/s speed=0.998x    frame= 1811 fps= 30 q=31.0 size=    2091kB time=00:01:00.40 bitrate= 283.6kbits/s speed=0.998x    frame= 1825 fps= 30 q=24.8 size=    2115kB time=00:01:00.86 bitrate= 284.6kbits/s speed=0.997x    frame= 1841 fps= 30 q=31.0 size=    2129kB time=00:01:01.40 bitrate= 284.1kbits/s speed=0.998x    frame= 1856 fps= 30 q=31.0 size=    2143kB time=00:01:01.90 bitrate= 283.6kbits/s speed=0.998x    frame= 1871 fps= 30 q=31.0 size=    2157kB time=00:01:02.40 bitrate= 283.2kbits/s speed=0.998x    frame= 1886 fps= 30 q=31.0 size=    2179kB time=00:01:02.90 bitrate= 283.8kbits/s speed=0.998x    frame= 1900 fps= 30 q=31.0 size=    2193kB time=00:01:03.40 bitrate= 283.4kbits/s speed=0.998x    frame= 1915 fps= 30 q=31.0 size=    2207kB time=00:01:03.90 bitrate= 282.9kbits/s speed=0.998x    frame= 1916 fps= 30 q=31.0 size=    2207kB time=00:01:04.47 bitrate= 280.5kbits/s speed=0.999x    frame= 1916 fps= 29 q=31.0 size=    2207kB time=00:01:04.97 bitrate= 278.3kbits/s speed=0.999x    frame= 1947 fps= 30 q=31.0 size=    2244kB time=00:01:05.47 bitrate= 280.7kbits/s speed=0.999x    frame= 1947 fps= 29 q=31.0 size=    2244kB time=00:01:05.95 bitrate= 278.7kbits/s speed=0.998x    frame= 1977 fps= 30 q=31.0 size=    2271kB time=00:01:06.48 bitrate= 279.8kbits/s speed=0.999x    frame= 1977 fps= 29 q=31.0 size=    2271kB time=00:01:06.99 bitrate= 277.7kbits/s speed=0.999x    frame= 2008 fps= 30 q=31.0 size=    2308kB time=00:01:07.49 bitrate= 280.1kbits/s speed=0.999x    frame= 2008 fps= 29 q=31.0 size=    2308kB time=00:01:07.99 bitrate= 278.0kbits/s speed=0.999x    frame= 2039 fps= 30 q=31.0 size=    2336kB time=00:01:08.50 bitrate= 279.4kbits/s speed=0.999x    frame= 2039 fps= 30 q=31.0 size=    2336kB time=00:01:09.03 bitrate= 277.3kbits/s speed=0.999x    frame= 2070 fps= 30 q=31.0 size=    2372kB time=00:01:09.51 bitrate= 279.6kbits/s speed=0.999x    frame= 2070 fps= 30 q=31.0 size=    2372kB time=00:01:10.01 bitrate= 277.6kbits/s speed=0.998x    frame= 2101 fps= 30 q=24.8 size=    2409kB time=00:01:10.54 bitrate= 279.8kbits/s speed=0.999x    frame= 2101 fps= 30 q=24.8 size=    2409kB time=00:01:11.04 bitrate= 277.8kbits/s speed=0.999x    frame= 2132 fps= 30 q=31.0 size=    2434kB time=00:01:11.52 bitrate= 278.8kbits/s speed=0.998x    frame= 2132 fps= 30 q=31.0 size=    2434kB time=00:01:12.05 bitrate= 276.8kbits/s speed=0.999x    frame= 2163 fps= 30 q=31.0 size=    2469kB time=00:01:12.53 bitrate= 278.8kbits/s speed=0.999x    frame= 2163 fps= 30 q=31.0 size=    2469kB time=00:01:13.06 bitrate= 276.8kbits/s speed=0.999x    frame= 2194 fps= 30 q=31.0 size=    2495kB time=00:01:13.56 bitrate= 277.9kbits/s speed=0.999x    frame= 2194 fps= 30 q=31.0 size=    2495kB time=00:01:14.07 bitrate= 276.0kbits/s speed=0.999x    frame= 2225 fps= 30 q=31.0 size=    2535kB time=00:01:14.57 bitrate= 278.4kbits/s speed=0.999x    frame= 2225 fps= 30 q=31.0 size=    2535kB time=00:01:15.07 bitrate= 276.6kbits/s speed=0.999x    frame= 2256 fps= 30 q=31.0 size=    2564kB time=00:01:15.55 bitrate= 278.0kbits/s speed=0.999x    frame= 2256 fps= 30 q=31.0 size=    2564kB time=00:01:16.08 bitrate= 276.0kbits/s speed=0.999x    frame= 2285 fps= 30 q=31.0 size=    2600kB time=00:01:16.56 bitrate= 278.2kbits/s speed=0.999x    frame= 2285 fps= 30 q=31.0 size=    2600kB time=00:01:17.09 bitrate= 276.3kbits/s speed=0.999x    frame= 2316 fps= 30 q=31.0 size=    2629kB time=00:01:17.59 bitrate= 277.6kbits/s speed=0.999x    frame= 2316 fps= 30 q=31.0 size=    2629kB time=00:01:18.07 bitrate= 275.9kbits/s speed=0.999x    frame= 2347 fps= 30 q=31.0 size=    2663kB time=00:01:18.60 bitrate= 277.6kbits/s speed=0.999x    frame= 2347 fps= 30 q=31.0 size=    2663kB time=00:01:19.08 bitrate= 275.9kbits/s speed=0.999x    frame= 2378 fps= 30 q=31.0 size=    2700kB time=00:01:19.59 bitrate= 277.9kbits/s speed=0.999x    frame= 2378 fps= 30 q=31.0 size=    2700kB time=00:01:20.11 bitrate= 276.1kbits/s speed=0.999x    frame= 2409 fps= 30 q=31.0 size=    2724kB time=00:01:20.59 bitrate= 276.9kbits/s speed=0.999x    frame= 2409 fps= 30 q=31.0 size=    2724kB time=00:01:21.12 bitrate= 275.1kbits/s speed=0.999x    frame= 2440 fps= 30 q=31.0 size=    2758kB time=00:01:21.63 bitrate= 276.8kbits/s speed=0.999x    frame= 2440 fps= 30 q=31.0 size=    2758kB time=00:01:22.11 bitrate= 275.1kbits/s speed=0.999x    frame= 2471 fps= 30 q=31.0 size=    2782kB time=00:01:22.53 bitrate= 276.2kbits/s speed=0.998x    frame= 2471 fps= 30 q=31.0 size=    2782kB time=00:01:23.14 bitrate= 274.2kbits/s speed=0.999x    frame= 2502 fps= 30 q=31.0 size=    2818kB time=00:01:23.56 bitrate= 276.2kbits/s speed=0.998x    frame= 2502 fps= 30 q=31.0 size=    2818kB time=00:01:24.15 bitrate= 274.3kbits/s speed=0.999x    frame= 2533 fps= 30 q=24.8 size=    2851kB time=00:01:24.60 bitrate= 276.1kbits/s speed=0.998x    frame= 2533 fps= 30 q=24.8 size=    2851kB time=00:01:25.15 bitrate= 274.3kbits/s speed=0.999x    frame= 2563 fps= 30 q=31.0 size=    2876kB time=00:01:25.60 bitrate= 275.3kbits/s speed=0.998x    frame= 2564 fps= 30 q=31.0 size=    2877kB time=00:01:26.16 bitrate= 273.5kbits/s speed=0.999x    frame= 2593 fps= 30 q=24.8 size=    2912kB time=00:01:26.60 bitrate= 275.5kbits/s speed=0.998x    frame= 2595 fps= 30 q=31.0 size=    2913kB time=00:01:27.17 bitrate= 273.7kbits/s speed=0.999x    frame= 2624 fps= 30 q=31.0 size=    2941kB time=00:01:27.63 bitrate= 274.9kbits/s speed=0.998x    frame= 2626 fps= 30 q=31.0 size=    2942kB time=00:01:28.18 bitrate= 273.3kbits/s speed=0.999x    frame= 2654 fps= 30 q=31.0 size=    2977kB time=00:01:28.63 bitrate= 275.1kbits/s speed=0.998x    frame= 2657 fps= 30 q=31.0 size=    2978kB time=00:01:29.19 bitrate= 273.5kbits/s speed=0.999x    frame= 2684 fps= 30 q=31.0 size=    3003kB time=00:01:29.63 bitrate= 274.4kbits/s speed=0.998x    frame= 2690 fps= 30 q=31.0 size=    3014kB time=00:01:30.17 bitrate= 273.8kbits/s speed=0.999x    frame= 2715 fps= 30 q=31.0 size=    3038kB time=00:01:30.66 bitrate= 274.5kbits/s speed=0.999x    frame= 2721 fps= 30 q=31.0 size=    3039kB time=00:01:31.18 bitrate= 273.1kbits/s speed=0.999x    frame= 2745 fps= 30 q=31.0 size=    3063kB time=00:01:31.66 bitrate= 273.7kbits/s speed=0.998x    frame= 2756 fps= 30 q=31.0 size=    3074kB time=00:01:32.19 bitrate= 273.2kbits/s speed=0.999x    frame= 2776 fps= 30 q=31.0 size=    3097kB time=00:01:32.70 bitrate= 273.7kbits/s speed=0.999x    frame= 2785 fps= 30 q=24.8 size=    3109kB time=00:01:33.19 bitrate= 273.3kbits/s speed=0.998x    frame= 2806 fps= 30 q=31.0 size=    3123kB time=00:01:33.70 bitrate= 273.0kbits/s speed=0.998x    frame= 2818 fps= 30 q=31.0 size=    3134kB time=00:01:34.18 bitrate= 272.6kbits/s speed=0.998x    frame= 2836 fps= 30 q=31.0 size=    3157kB time=00:01:34.70 bitrate= 273.1kbits/s speed=0.998x    frame= 2850 fps= 30 q=31.0 size=    3169kB time=00:01:35.19 bitrate= 272.7kbits/s speed=0.998x    frame= 2867 fps= 30 q=31.0 size=    3181kB time=00:01:35.73 bitrate= 272.2kbits/s speed=0.999x    frame= 2882 fps= 30 q=31.0 size=    3203kB time=00:01:36.23 bitrate= 272.7kbits/s speed=0.999x    frame= 2897 fps= 30 q=31.0 size=    3216kB time=00:01:36.73 bitrate= 272.4kbits/s speed=0.998x    frame= 2912 fps= 30 q=31.0 size=    3230kB time=00:01:37.23 bitrate= 272.1kbits/s speed=0.998x    frame= 2927 fps= 30 q=31.0 size=    3246kB time=00:01:37.73 bitrate= 272.1kbits/s speed=0.998x    frame= 2943 fps= 30 q=31.0 size=    3268kB time=00:01:38.26 bitrate= 272.5kbits/s speed=0.999x    frame= 2956 fps= 30 q=31.0 size=    3283kB time=00:01:38.73 bitrate= 272.4kbits/s speed=0.998x    frame= 2970 fps= 30 q=31.0 size=    3298kB time=00:01:39.26 bitrate= 272.2kbits/s speed=0.999x    frame= 2985 fps= 30 q=31.0 size=    3313kB time=00:01:39.76 bitrate= 272.0kbits/s speed=0.999x    frame= 2995 fps= 30 q=31.0 size=    3326kB time=00:01:40.32 bitrate= 271.6kbits/s speed=0.999x    frame= 2995 fps= 30 q=31.0 size=    3326kB time=00:01:40.83 bitrate= 270.2kbits/s speed=0.999x    frame= 3016 fps= 30 q=31.0 size=    3352kB time=00:01:41.21 bitrate= 271.3kbits/s speed=0.998x    frame= 3026 fps= 30 q=31.0 size=    3368kB time=00:01:41.83 bitrate= 270.9kbits/s speed=0.999x    frame= 3053 fps= 30 q=31.0 size=    3402kB time=00:01:42.22 bitrate= 272.7kbits/s speed=0.998x    frame= 3057 fps= 30 q=31.0 size=    3404kB time=00:01:42.82 bitrate= 271.2kbits/s speed=0.999x    frame= 3080 fps= 30 q=31.0 size=    3435kB time=00:01:43.20 bitrate= 272.6kbits/s speed=0.998x    frame= 3088 fps= 30 q=31.0 size=    3448kB time=00:01:43.83 bitrate= 272.0kbits/s speed=0.999x    frame= 3103 fps= 30 q=31.0 size=    3468kB time=00:01:44.21 bitrate= 272.6kbits/s speed=0.998x    frame= 3119 fps= 30 q=31.0 size=    3485kB time=00:01:44.83 bitrate= 272.3kbits/s speed=0.999x    frame= 3137 fps= 30 q=31.0 size=    3521kB time=00:01:45.22 bitrate= 274.1kbits/s speed=0.998x    frame= 3150 fps= 30 q=31.0 size=    3534kB time=00:01:45.84 bitrate= 273.5kbits/s speed=0.999x    frame= 3168 fps= 30 q=31.0 size=    3554kB time=00:01:46.23 bitrate= 274.0kbits/s speed=0.998x    frame= 3181 fps= 30 q=24.8 size=    3574kB time=00:01:46.85 bitrate= 274.0kbits/s speed=0.999x    frame= 3199 fps= 30 q=31.0 size=    3589kB time=00:01:47.23 bitrate= 274.2kbits/s speed=0.998x    frame= 3211 fps= 30 q=31.0 size=    3603kB time=00:01:47.86 bitrate= 273.7kbits/s speed=0.999x    frame= 3232 fps= 30 q=31.0 size=    3631kB time=00:01:48.22 bitrate= 274.9kbits/s speed=0.998x    frame= 3242 fps= 30 q=31.0 size=    3647kB time=00:01:48.87 bitrate= 274.5kbits/s speed=0.999x    frame= 3266 fps= 30 q=31.0 size=    3676kB time=00:01:49.23 bitrate= 275.7kbits/s speed=0.998x    frame= 3273 fps= 30 q=31.0 size=    3682kB time=00:01:49.90 bitrate= 274.4kbits/s speed=0.999x    frame= 3289 fps= 30 q=24.8 size=    3707kB time=00:01:50.23 bitrate= 275.4kbits/s speed=0.998x    frame= 3301 fps= 30 q=24.8 size=    3719kB time=00:01:50.88 bitrate= 274.8kbits/s speed=0.999x    frame= 3326 fps= 30 q=31.0 size=    3743kB time=00:01:51.26 bitrate= 275.6kbits/s speed=0.998x    frame= 3332 fps= 30 q=31.0 size=    3748kB time=00:01:51.89 bitrate= 274.4kbits/s speed=0.999x    frame= 3359 fps= 30 q=31.0 size=    3779kB time=00:01:52.36 bitrate= 275.5kbits/s speed=0.999x    frame= 3363 fps= 30 q=31.0 size=    3790kB time=00:01:52.90 bitrate= 275.0kbits/s speed=0.999x    frame= 3389 fps= 30 q=31.0 size=    3829kB time=00:01:53.36 bitrate= 276.7kbits/s speed=0.999x    frame= 3394 fps= 30 q=31.0 size=    3833kB time=00:01:53.93 bitrate= 275.6kbits/s speed=0.999x    frame= 3420 fps= 30 q=31.0 size=    3861kB time=00:01:54.40 bitrate= 276.5kbits/s speed=0.999x    frame= 3425 fps= 30 q=31.0 size=    3871kB time=00:01:54.91 bitrate= 275.9kbits/s speed=0.999x    frame= 3450 fps= 30 q=31.0 size=    3898kB time=00:01:55.40 bitrate= 276.7kbits/s speed=0.999x    frame= 3456 fps= 30 q=31.0 size=    3901kB time=00:01:55.95 bitrate= 275.6kbits/s speed=0.999x    frame= 3480 fps= 30 q=31.0 size=    3926kB time=00:01:56.40 bitrate= 276.3kbits/s speed=0.999x    frame= 3487 fps= 30 q=31.0 size=    3937kB time=00:01:56.95 bitrate= 275.8kbits/s speed=0.999x    frame= 3510 fps= 30 q=31.0 size=    3963kB time=00:01:57.43 bitrate= 276.4kbits/s speed=0.999x    frame= 3517 fps= 30 q=24.8 size=    3975kB time=00:01:57.96 bitrate= 276.0kbits/s speed=0.999x    frame= 3540 fps= 30 q=31.0 size=    3993kB time=00:01:58.43 bitrate= 276.2kbits/s speed=0.999x    frame= 3548 fps= 30 q=31.0 size=    4005kB time=00:01:58.95 bitrate= 275.8kbits/s speed=0.999x    frame= 3570 fps= 30 q=31.0 size=    4029kB time=00:01:59.43 bitrate= 276.4kbits/s speed=0.999x    frame= 3579 fps= 30 q=31.0 size=    4040kB time=00:01:59.98 bitrate= 275.9kbits/s speed=0.999x    frame= 3600 fps= 30 q=31.0 size=    4055kB time=00:02:00.43 bitrate= 275.8kbits/s speed=0.999x    frame= 3610 fps= 30 q=31.0 size=    4067kB time=00:02:00.99 bitrate= 275.3kbits/s speed=0.999x    frame= 3630 fps= 30 q=31.0 size=    4088kB time=00:02:01.43 bitrate= 275.8kbits/s speed=0.999x    frame= 3640 fps= 30 q=31.0 size=    4099kB time=00:02:01.99 bitrate= 275.3kbits/s speed=0.999x    frame= 3660 fps= 30 q=31.0 size=    4114kB time=00:02:02.46 bitrate= 275.2kbits/s speed=0.999x    frame= 3671 fps= 30 q=31.0 size=    4126kB time=00:02:03.00 bitrate= 274.8kbits/s speed=0.999x    frame= 3690 fps= 30 q=31.0 size=    4148kB time=00:02:03.46 bitrate= 275.2kbits/s speed=0.999x    frame= 3702 fps= 30 q=31.0 size=    4160kB time=00:02:04.01 bitrate= 274.8kbits/s speed=0.999x    frame= 3721 fps= 30 q=24.8 size=    4189kB time=00:02:04.50 bitrate= 275.6kbits/s speed=0.999x    frame= 3733 fps= 30 q=24.8 size=    4202kB time=00:02:05.04 bitrate= 275.3kbits/s speed=0.999x    frame= 3751 fps= 30 q=31.0 size=    4217kB time=00:02:05.50 bitrate= 275.3kbits/s speed=0.999x    frame= 3764 fps= 30 q=31.0 size=    4231kB time=00:02:06.05 bitrate= 274.9kbits/s speed=0.999x    frame= 3781 fps= 30 q=24.8 size=    4253kB time=00:02:06.50 bitrate= 275.4kbits/s speed=0.999x    frame= 3795 fps= 30 q=31.0 size=    4267kB time=00:02:06.96 bitrate= 275.3kbits/s speed=0.999x    frame= 3812 fps= 30 q=31.0 size=    4280kB time=00:02:07.53 bitrate= 274.9kbits/s speed=0.999x    frame= 3826 fps= 30 q=31.0 size=    4294kB time=00:02:08.00 bitrate= 274.8kbits/s speed=0.999x    frame= 3842 fps= 30 q=31.0 size=    4315kB time=00:02:08.53 bitrate= 275.0kbits/s speed=0.999x    frame= 3857 fps= 30 q=31.0 size=    4332kB time=00:02:09.03 bitrate= 275.0kbits/s speed=0.999x    frame= 3872 fps= 30 q=31.0 size=    4347kB time=00:02:09.53 bitrate= 274.9kbits/s speed=0.999x    frame= 3887 fps= 30 q=31.0 size=    4373kB time=00:02:10.03 bitrate= 275.5kbits/s speed=0.999x    frame= 3902 fps= 30 q=31.0 size=    4399kB time=00:02:10.53 bitrate= 276.1kbits/s speed=0.999x    frame= 3917 fps= 30 q=31.0 size=    4412kB time=00:02:11.03 bitrate= 275.8kbits/s speed=0.999x    frame= 3933 fps= 30 q=31.0 size=    4449kB time=00:02:11.56 bitrate= 277.0kbits/s speed=0.999x    frame= 3948 fps= 30 q=31.0 size=    4467kB time=00:02:12.06 bitrate= 277.1kbits/s speed=0.999x    frame= 3963 fps= 30 q=31.0 size=    4491kB time=00:02:12.56 bitrate= 277.5kbits/s speed=0.999x    frame= 3978 fps= 30 q=31.0 size=    4505kB time=00:02:13.06 bitrate= 277.3kbits/s speed=0.999x    frame= 3981 fps= 30 q=31.0 size=    4506kB time=00:02:13.61 bitrate= 276.3kbits/s speed=0.999x    frame= 3981 fps= 30 q=31.0 size=    4506kB time=00:02:14.11 bitrate= 275.2kbits/s speed=0.999x    frame= 4012 fps= 30 q=31.0 size=    4542kB time=00:02:14.62 bitrate= 276.4kbits/s speed=0.999x    frame= 4012 fps= 30 q=31.0 size=    4542kB time=00:02:15.10 bitrate= 275.4kbits/s speed=0.999x    frame= 4043 fps= 30 q=31.0 size=    4577kB time=00:02:15.63 bitrate= 276.5kbits/s speed=0.999x    frame= 4043 fps= 30 q=31.0 size=    4577kB time=00:02:16.13 bitrate= 275.4kbits/s speed=0.999x    frame= 4074 fps= 30 q=31.0 size=    4620kB time=00:02:16.61 bitrate= 277.0kbits/s speed=0.999x    frame= 4074 fps= 30 q=31.0 size=    4620kB time=00:02:17.14 bitrate= 276.0kbits/s speed=0.999x    frame= 4105 fps= 30 q=24.8 size=    4661kB time=00:02:17.62 bitrate= 277.4kbits/s speed=0.999x    frame= 4105 fps= 30 q=24.8 size=    4661kB time=00:02:18.15 bitrate= 276.4kbits/s speed=0.999x    frame= 4136 fps= 30 q=31.0 size=    4691kB time=00:02:18.65 bitrate= 277.1kbits/s speed=0.999x    frame= 4136 fps= 30 q=31.0 size=    4691kB time=00:02:19.15 bitrate= 276.1kbits/s speed=0.999x    frame= 4167 fps= 30 q=31.0 size=    4731kB time=00:02:19.66 bitrate= 277.5kbits/s speed=0.999x    frame= 4167 fps= 30 q=31.0 size=    4731kB time=00:02:20.16 bitrate= 276.5kbits/s speed=0.999x    frame= 4198 fps= 30 q=31.0 size=    4761kB time=00:02:20.64 bitrate= 277.3kbits/s speed=0.999x    frame= 4198 fps= 30 q=31.0 size=    4761kB time=00:02:21.17 bitrate= 276.3kbits/s speed=0.999x    frame= 4229 fps= 30 q=31.0 size=    4800kB time=00:02:21.67 bitrate= 277.5kbits/s speed=0.999x    frame= 4229 fps= 30 q=31.0 size=    4800kB time=00:02:22.18 bitrate= 276.6kbits/s speed=0.999x    frame= 4260 fps= 30 q=31.0 size=    4829kB time=00:02:22.68 bitrate= 277.2kbits/s speed=0.999x    frame= 4260 fps= 30 q=31.0 size=    4829kB time=00:02:23.16 bitrate= 276.3kbits/s speed=0.999x    frame= 4291 fps= 30 q=31.0 size=    4865kB time=00:02:23.69 bitrate= 277.4kbits/s speed=0.999x    frame= 4291 fps= 30 q=31.0 size=    4865kB time=00:02:24.19 bitrate= 276.4kbits/s speed=0.999x    frame= 4322 fps= 30 q=31.0 size=    4903kB time=00:02:24.67 bitrate= 277.6kbits/s speed=0.999x    frame= 4322 fps= 30 q=31.0 size=    4903kB time=00:02:25.20 bitrate= 276.6kbits/s speed=0.999x    frame= 4353 fps= 30 q=31.0 size=    4932kB time=00:02:25.68 bitrate= 277.3kbits/s speed=0.999x    frame= 4353 fps= 30 q=31.0 size=    4932kB time=00:02:26.21 bitrate= 276.3kbits/s speed=0.999x    frame= 4384 fps= 30 q=31.0 size=    4971kB time=00:02:26.71 bitrate= 277.6kbits/s speed=0.999x    frame= 4384 fps= 30 q=31.0 size=    4971kB time=00:02:27.19 bitrate= 276.7kbits/s speed=0.999x    frame= 4415 fps= 30 q=31.0 size=    4997kB time=00:02:27.72 bitrate= 277.1kbits/s speed=0.999x    frame= 4415 fps= 30 q=31.0 size=    4997kB time=00:02:28.23 bitrate= 276.2kbits/s speed=0.999x    frame= 4446 fps= 30 q=31.0 size=    5032kB time=00:02:28.66 bitrate= 277.3kbits/s speed=0.999x    frame= 4446 fps= 30 q=31.0 size=    5032kB time=00:02:29.23 bitrate= 276.2kbits/s speed=0.999x    frame= 4477 fps= 30 q=24.8 size=    5068kB time=00:02:29.70 bitrate= 277.3kbits/s speed=0.999x    frame= 4477 fps= 30 q=24.8 size=    5068kB time=00:02:30.24 bitrate= 276.3kbits/s speed=0.999x    frame= 4508 fps= 30 q=31.0 size=    5095kB time=00:02:30.73 bitrate= 276.9kbits/s speed=0.999x    frame= 4508 fps= 30 q=31.0 size=    5095kB time=00:02:31.25 bitrate= 275.9kbits/s speed=0.999x    frame= 4534 fps= 30 q=31.0 size=    5119kB time=00:02:31.63 bitrate= 276.6kbits/s speed=0.999x    frame= 4535 fps= 30 q=31.0 size=    5119kB time=00:02:32.26 bitrate= 275.4kbits/s speed=0.999x    frame= 4563 fps= 30 q=31.0 size=    5153kB time=00:02:32.70 bitrate= 276.4kbits/s speed=0.999x    frame= 4565 fps= 30 q=31.0 size=    5153kB time=00:02:33.27 bitrate= 275.4kbits/s speed=0.999x    frame= 4593 fps= 30 q=31.0 size=    5177kB time=00:02:33.70 bitrate= 275.9kbits/s speed=0.999x    frame= 4596 fps= 30 q=31.0 size=    5177kB time=00:02:34.27 bitrate= 274.9kbits/s speed=0.999x    frame= 4623 fps= 30 q=31.0 size=    5210kB time=00:02:34.70 bitrate= 275.9kbits/s speed=0.999x    frame= 4627 fps= 30 q=31.0 size=    5211kB time=00:02:35.26 bitrate= 275.0kbits/s speed=0.999x    frame= 4653 fps= 30 q=31.0 size=    5235kB time=00:02:35.70 bitrate= 275.4kbits/s speed=0.999x    frame= 4658 fps= 30 q=31.0 size=    5246kB time=00:02:36.27 bitrate= 275.0kbits/s speed=0.999x    frame= 4684 fps= 30 q=31.0 size=    5270kB time=00:02:36.73 bitrate= 275.4kbits/s speed=0.999x    frame= 4689 fps= 30 q=31.0 size=    5271kB time=00:02:37.27 bitrate= 274.6kbits/s speed=0.999x    frame= 4714 fps= 30 q=31.0 size=    5296kB time=00:02:37.73 bitrate= 275.1kbits/s speed=0.999x    frame= 4720 fps= 30 q=31.0 size=    5307kB time=00:02:38.31 bitrate= 274.6kbits/s speed=   1x    frame= 4744 fps= 30 q=31.0 size=    5331kB time=00:02:38.73 bitrate= 275.1kbits/s speed=0.999x    frame= 4751 fps= 30 q=31.0 size=    5333kB time=00:02:39.29 bitrate= 274.3kbits/s speed=0.999x    frame= 4774 fps= 30 q=31.0 size=    5360kB time=00:02:39.73 bitrate= 274.9kbits/s speed=0.999x    frame= 4782 fps= 30 q=31.0 size=    5372kB time=00:02:40.30 bitrate= 274.5kbits/s speed=0.999x    frame= 4805 fps= 30 q=31.0 size=    5401kB time=00:02:40.76 bitrate= 275.2kbits/s speed=0.999x    frame= 4813 fps= 30 q=24.8 size=    5413kB time=00:02:41.31 bitrate= 274.9kbits/s speed=0.999x    frame= 4835 fps= 30 q=31.0 size=    5432kB time=00:02:41.76 bitrate= 275.1kbits/s speed=0.999x    frame= 4844 fps= 30 q=31.0 size=    5444kB time=00:02:42.34 bitrate= 274.7kbits/s speed=   1x    frame= 4865 fps= 30 q=31.0 size=    5470kB time=00:02:42.76 bitrate= 275.3kbits/s speed=0.999x    frame= 4874 fps= 30 q=31.0 size=    5482kB time=00:02:43.32 bitrate= 275.0kbits/s speed=0.999x    frame= 4894 fps= 30 q=31.0 size=    5498kB time=00:02:43.76 bitrate= 275.0kbits/s speed=0.999x    frame= 4905 fps= 30 q=31.0 size=    5511kB time=00:02:44.33 bitrate= 274.7kbits/s speed=0.999x    frame= 4924 fps= 30 q=31.0 size=    5533kB time=00:02:44.80 bitrate= 275.0kbits/s speed=0.999x    frame= 4934 fps= 30 q=31.0 size=    5545kB time=00:02:45.36 bitrate= 274.7kbits/s speed=0.999x    frame= 4953 fps= 30 q=31.0 size=    5559kB time=00:02:45.80 bitrate= 274.7kbits/s speed=0.999x    frame= 4965 fps= 30 q=31.0 size=    5571kB time=00:02:46.37 bitrate= 274.3kbits/s speed=0.999x    frame= 4984 fps= 30 q=31.0 size=    5599kB time=00:02:46.83 bitrate= 274.9kbits/s speed=0.999x    frame= 4996 fps= 30 q=31.0 size=    5612kB time=00:02:47.38 bitrate= 274.6kbits/s speed=0.999x    frame= 5014 fps= 30 q=31.0 size=    5626kB time=00:02:47.83 bitrate= 274.6kbits/s speed=0.999x    frame= 5026 fps= 30 q=31.0 size=    5639kB time=00:02:48.39 bitrate= 274.3kbits/s speed=0.999x    frame= 5026 fps= 30 q=31.0 size=    5639kB time=00:02:48.89 bitrate= 273.5kbits/s speed=0.999x    frame= 5028 fps= 30 q=31.0 size=    5639kB time=00:02:49.39 bitrate= 272.7kbits/s speed=0.999x    frame= 5057 fps= 30 q=31.0 size=    5674kB time=00:02:49.90 bitrate= 273.6kbits/s speed=0.999x    frame= 5058 fps= 30 q=31.0 size=    5674kB time=00:02:50.40 bitrate= 272.8kbits/s speed=0.999x    frame= 5088 fps= 30 q=31.0 size=    5700kB time=00:02:50.91 bitrate= 273.2kbits/s speed=0.999x    frame= 5089 fps= 30 q=24.8 size=    5709kB time=00:02:51.39 bitrate= 272.9kbits/s speed=0.999x    frame= 5119 fps= 30 q=31.0 size=    5737kB time=00:02:51.91 bitrate= 273.4kbits/s speed=0.999x    frame= 5121 fps= 30 q=31.0 size=    5738kB time=00:02:52.39 bitrate= 272.7kbits/s speed=0.999x    frame= 5150 fps= 30 q=31.0 size=    5772kB time=00:02:52.92 bitrate= 273.4kbits/s speed=0.999x    frame= 5154 fps= 30 q=31.0 size=    5773kB time=00:02:53.40 bitrate= 272.7kbits/s speed=0.999x    frame= 5181 fps= 30 q=31.0 size=    5798kB time=00:02:53.93 bitrate= 273.1kbits/s speed=0.999x    frame= 5184 fps= 30 q=31.0 size=    5798kB time=00:02:54.41 bitrate= 272.3kbits/s speed=0.999x    frame= 5212 fps= 30 q=31.0 size=    5832kB time=00:02:54.94 bitrate= 273.1kbits/s speed=0.999x    frame= 5219 fps= 30 q=31.0 size=    5833kB time=00:02:55.39 bitrate= 272.4kbits/s speed=0.999x    frame= 5243 fps= 30 q=31.0 size=    5857kB time=00:02:55.97 bitrate= 272.7kbits/s speed=   1x    frame= 5247 fps= 30 q=31.0 size=    5867kB time=00:02:56.40 bitrate= 272.5kbits/s speed=0.999x    frame= 5274 fps= 30 q=31.0 size=    5891kB time=00:02:56.95 bitrate= 272.7kbits/s speed=0.999x    frame= 5283 fps= 30 q=31.0 size=    5903kB time=00:02:57.41 bitrate= 272.6kbits/s speed=0.999x    frame= 5305 fps= 30 q=24.8 size=    5927kB time=00:02:57.96 bitrate= 272.8kbits/s speed=0.999x    frame= 5315 fps= 30 q=31.0 size=    5931kB time=00:02:58.42 bitrate= 272.3kbits/s speed=0.999x    frame= 5336 fps= 30 q=31.0 size=    5956kB time=00:02:58.97 bitrate= 272.6kbits/s speed=0.999x    frame= 5345 fps= 30 q=31.0 size=    5967kB time=00:02:59.43 bitrate= 272.4kbits/s speed=0.999x    frame= 5366 fps= 30 q=31.0 size=    5990kB time=00:02:59.98 bitrate= 272.6kbits/s speed=0.999x    frame= 5374 fps= 30 q=31.0 size=    5992kB time=00:03:00.41 bitrate= 272.1kbits/s speed=0.999x    frame= 5396 fps= 30 q=31.0 size=    6016kB time=00:03:00.99 bitrate= 272.3kbits/s speed=0.999x    frame= 5402 fps= 30 q=31.0 size=    6027kB time=00:03:01.42 bitrate= 272.1kbits/s speed=0.999x    frame= 5427 fps= 30 q=31.0 size=    6053kB time=00:03:01.99 bitrate= 272.5kbits/s speed=0.999x    frame= 5444 fps= 30 q=31.0 size=    6066kB time=00:03:02.43 bitrate= 272.4kbits/s speed=0.999x    frame= 5456 fps= 30 q=31.0 size=    6078kB time=00:03:03.00 bitrate= 272.1kbits/s speed=0.999x    frame= 5465 fps= 30 q=31.0 size=    6090kB time=00:03:03.43 bitrate= 271.9kbits/s speed=0.999x    frame= 5485 fps= 30 q=24.8 size=    6114kB time=00:03:04.01 bitrate= 272.2kbits/s speed=0.999x    frame= 5492 fps= 30 q=31.0 size=    6116kB time=00:03:04.42 bitrate= 271.7kbits/s speed=0.999x    frame= 5516 fps= 30 q=31.0 size=    6147kB time=00:03:05.02 bitrate= 272.1kbits/s speed=0.999x    frame= 5525 fps= 30 q=31.0 size=    6160kB time=00:03:05.43 bitrate= 272.1kbits/s speed=0.999x    frame= 5544 fps= 30 q=31.0 size=    6176kB time=00:03:06.03 bitrate= 272.0kbits/s speed=   1x    frame= 5554 fps= 30 q=31.0 size=    6190kB time=00:03:06.43 bitrate= 272.0kbits/s speed=0.999x    frame= 5575 fps= 30 q=31.0 size=    6215kB time=00:03:07.03 bitrate= 272.2kbits/s speed=   1x    frame= 5585 fps= 30 q=31.0 size=    6227kB time=00:03:07.44 bitrate= 272.1kbits/s speed=0.999x    frame= 5606 fps= 30 q=31.0 size=    6255kB time=00:03:08.04 bitrate= 272.5kbits/s speed=   1x    frame= 5617 fps= 30 q=24.8 size=    6270kB time=00:03:08.45 bitrate= 272.6kbits/s speed=0.999x    frame= 5637 fps= 30 q=31.0 size=    6286kB time=00:03:09.03 bitrate= 272.4kbits/s speed=0.999x    frame= 5650 fps= 30 q=31.0 size=    6300kB time=00:03:09.43 bitrate= 272.4kbits/s speed=0.999x    frame= 5668 fps= 30 q=31.0 size=    6322kB time=00:03:09.96 bitrate= 272.6kbits/s speed=0.999x    frame= 5684 fps= 30 q=31.0 size=    6337kB time=00:03:10.50 bitrate= 272.5kbits/s speed=0.999x    frame= 5699 fps= 30 q=31.0 size=    6351kB time=00:03:11.00 bitrate= 272.4kbits/s speed=0.999x    frame= 5714 fps= 30 q=31.0 size=    6375kB time=00:03:11.50 bitrate= 272.7kbits/s speed=0.999x    frame= 5729 fps= 30 q=31.0 size=    6390kB time=00:03:12.00 bitrate= 272.7kbits/s speed=0.999x    frame= 5744 fps= 30 q=31.0 size=    6408kB time=00:03:12.50 bitrate= 272.7kbits/s speed=0.999x    frame= 5760 fps= 30 q=31.0 size=    6423kB time=00:03:13.03 bitrate= 272.6kbits/s speed=0.999x    frame= 5774 fps= 30 q=31.0 size=    6446kB time=00:03:13.53 bitrate= 272.8kbits/s speed=0.999x    frame= 5789 fps= 30 q=31.0 size=    6459kB time=00:03:14.03 bitrate= 272.7kbits/s speed=0.999x    frame= 5804 fps= 30 q=31.0 size=    6473kB time=00:03:14.53 bitrate= 272.6kbits/s speed=0.999x    frame= 5819 fps= 30 q=31.0 size=    6489kB time=00:03:15.03 bitrate= 272.6kbits/s speed=0.999x    frame= 5834 fps= 30 q=31.0 size=    6513kB time=00:03:15.53 bitrate= 272.9kbits/s speed=0.999x    frame= 5850 fps= 30 q=31.0 size=    6529kB time=00:03:16.06 bitrate= 272.8kbits/s speed=0.999x    frame= 5865 fps= 30 q=31.0 size=    6544kB time=00:03:16.56 bitrate= 272.7kbits/s speed=0.999x    frame= 5879 fps= 30 q=31.0 size=    6559kB time=00:03:17.06 bitrate= 272.6kbits/s speed=0.999x    frame= 5894 fps= 30 q=31.0 size=    6582kB time=00:03:17.56 bitrate= 272.9kbits/s speed=0.999x    frame= 5909 fps= 30 q=31.0 size=    6599kB time=00:03:18.06 bitrate= 272.9kbits/s speed=0.999x    frame= 5924 fps= 30 q=31.0 size=    6616kB time=00:03:18.56 bitrate= 273.0kbits/s speed=0.999x    frame= 5940 fps= 30 q=31.0 size=    6631kB time=00:03:19.10 bitrate= 272.8kbits/s speed=0.999x    frame= 5954 fps= 30 q=31.0 size=    6652kB time=00:03:19.60 bitrate= 273.0kbits/s speed=0.999x    frame= 5969 fps= 30 q=31.0 size=    6665kB time=00:03:20.10 bitrate= 272.9kbits/s speed=0.999x    frame= 5984 fps= 30 q=31.0 size=    6678kB time=00:03:20.60 bitrate= 272.7kbits/s speed=0.999x    frame= 5999 fps= 30 q=31.0 size=    6695kB time=00:03:21.10 bitrate= 272.7kbits/s speed=0.999x    frame= 6007 fps= 30 q=31.0 size=    6705kB time=00:03:21.65 bitrate= 272.4kbits/s speed=   1x    frame= 6007 fps= 30 q=31.0 size=    6705kB time=00:03:22.13 bitrate= 271.8kbits/s speed=0.999x    frame= 6037 fps= 30 q=24.8 size=    6751kB time=00:03:22.66 bitrate= 272.9kbits/s speed=   1x    frame= 6037 fps= 30 q=24.8 size=    6751kB time=00:03:23.16 bitrate= 272.2kbits/s speed=   1x    frame= 6067 fps= 30 q=31.0 size=    6778kB time=00:03:23.64 bitrate= 272.7kbits/s speed=0.999x    frame= 6067 fps= 30 q=31.0 size=    6778kB time=00:03:24.17 bitrate= 272.0kbits/s speed=   1x    frame= 6098 fps= 30 q=31.0 size=    6821kB time=00:03:24.65 bitrate= 273.0kbits/s speed=0.999x    frame= 6098 fps= 30 q=31.0 size=    6821kB time=00:03:25.15 bitrate= 272.4kbits/s speed=0.999x    frame= 6129 fps= 30 q=31.0 size=    6852kB time=00:03:25.68 bitrate= 272.9kbits/s speed=   1x    frame= 6129 fps= 30 q=31.0 size=    6852kB time=00:03:26.16 bitrate= 272.3kbits/s speed=0.999x    frame= 6159 fps= 30 q=31.0 size=    6893kB time=00:03:26.69 bitrate= 273.2kbits/s speed=   1x    frame= 6159 fps= 30 q=31.0 size=    6893kB time=00:03:27.19 bitrate= 272.5kbits/s speed=   1x    frame= 6189 fps= 30 q=31.0 size=    6921kB time=00:03:27.67 bitrate= 273.0kbits/s speed=0.999x    frame= 6189 fps= 30 q=31.0 size=    6921kB time=00:03:28.20 bitrate= 272.3kbits/s speed=   1x    frame= 6216 fps= 30 q=31.0 size=    6952kB time=00:03:28.71 bitrate= 272.9kbits/s speed=   1x    frame= 6216 fps= 30 q=31.0 size=    6952kB time=00:03:29.19 bitrate= 272.2kbits/s speed=0.999x    frame= 6245 fps= 30 q=31.0 size=    6993kB time=00:03:29.63 bitrate= 273.3kbits/s speed=0.999x    frame= 6245 fps= 30 q=31.0 size=    6993kB time=00:03:30.22 bitrate= 272.5kbits/s speed=   1x    frame= 6274 fps= 30 q=31.0 size=    7021kB time=00:03:30.63 bitrate= 273.1kbits/s speed=0.999x    frame= 6275 fps= 30 q=31.0 size=    7021kB time=00:03:31.23 bitrate= 272.3kbits/s speed=   1x    frame= 6302 fps= 30 q=31.0 size=    7058kB time=00:03:31.63 bitrate= 273.2kbits/s speed=0.999x    frame= 6303 fps= 30 q=31.0 size=    7058kB time=00:03:32.23 bitrate= 272.4kbits/s speed=   1x    frame= 6329 fps= 30 q=31.0 size=    7089kB time=00:03:32.66 bitrate= 273.1kbits/s speed=0.999x    frame= 6330 fps= 30 q=31.0 size=    7090kB time=00:03:33.22 bitrate= 272.4kbits/s speed=0.999x    frame= 6356 fps= 30 q=31.0 size=    7119kB time=00:03:33.66 bitrate= 272.9kbits/s speed=0.999x    frame= 6359 fps= 30 q=31.0 size=    7120kB time=00:03:34.25 bitrate= 272.2kbits/s speed=   1x    frame= 6387 fps= 30 q=31.0 size=    7160kB time=00:03:34.70 bitrate= 273.2kbits/s speed=0.999x    frame= 6390 fps= 30 q=31.0 size=    7161kB time=00:03:35.26 bitrate= 272.5kbits/s speed=   1x    frame= 6417 fps= 30 q=31.0 size=    7188kB time=00:03:35.70 bitrate= 273.0kbits/s speed=0.999x    frame= 6421 fps= 30 q=24.8 size=    7198kB time=00:03:36.29 bitrate= 272.6kbits/s speed=   1x    frame= 6446 fps= 30 q=31.0 size=    7228kB time=00:03:36.73 bitrate= 273.2kbits/s speed=0.999x    frame= 6450 fps= 30 q=31.0 size=    7229kB time=00:03:37.30 bitrate= 272.5kbits/s speed=   1x    frame= 6475 fps= 30 q=31.0 size=    7262kB time=00:03:37.73 bitrate= 273.2kbits/s speed=0.999x    frame= 6480 fps= 30 q=31.0 size=    7264kB time=00:03:38.31 bitrate= 272.6kbits/s speed=   1x    frame= 6504 fps= 30 q=31.0 size=    7301kB time=00:03:38.73 bitrate= 273.4kbits/s speed=0.999x    frame= 6510 fps= 30 q=31.0 size=    7311kB time=00:03:39.31 bitrate= 273.1kbits/s speed=   1x    frame= 6533 fps= 30 q=31.0 size=    7341kB time=00:03:39.73 bitrate= 273.7kbits/s speed=0.999x    frame= 6539 fps= 30 q=31.0 size=    7343kB time=00:03:40.32 bitrate= 273.0kbits/s speed=   1x    frame= 6563 fps= 30 q=31.0 size=    7374kB time=00:03:40.76 bitrate= 273.6kbits/s speed=0.999x    frame= 6570 fps= 30 q=31.0 size=    7384kB time=00:03:41.33 bitrate= 273.3kbits/s speed=   1x    frame= 6591 fps= 30 q=31.0 size=    7408kB time=00:03:41.76 bitrate= 273.7kbits/s speed=0.999x    frame= 6599 fps= 30 q=31.0 size=    7413kB time=00:03:42.34 bitrate= 273.1kbits/s speed=   1x    frame= 6622 fps= 30 q=31.0 size=    7440kB time=00:03:42.80 bitrate= 273.5kbits/s speed=0.999x    frame= 6630 fps= 30 q=31.0 size=    7451kB time=00:03:43.35 bitrate= 273.3kbits/s speed=   1x    frame= 6651 fps= 30 q=31.0 size=    7477kB time=00:03:43.80 bitrate= 273.7kbits/s speed=0.999x    frame= 6659 fps= 30 q=31.0 size=    7485kB time=00:03:44.35 bitrate= 273.3kbits/s speed=   1x    frame= 6679 fps= 30 q=31.0 size=    7513kB time=00:03:44.80 bitrate= 273.8kbits/s speed=0.999x    frame= 6689 fps= 30 q=31.0 size=    7529kB time=00:03:45.36 bitrate= 273.7kbits/s speed=   1x    frame= 6708 fps= 30 q=31.0 size=    7548kB time=00:03:45.80 bitrate= 273.9kbits/s speed=0.999x    frame= 6720 fps= 30 q=31.0 size=    7562kB time=00:03:46.37 bitrate= 273.6kbits/s speed=   1x    frame= 6736 fps= 30 q=31.0 size=    7585kB time=00:03:46.73 bitrate= 274.0kbits/s speed=0.999x    frame= 6748 fps= 30 q=31.0 size=    7599kB time=00:03:47.38 bitrate= 273.8kbits/s speed=   1x    frame= 6764 fps= 30 q=31.0 size=    7613kB time=00:03:47.76 bitrate= 273.8kbits/s speed=0.999x    frame= 6778 fps= 30 q=31.0 size=    7629kB time=00:03:48.26 bitrate= 273.8kbits/s speed=0.999x    frame= 6794 fps= 30 q=31.0 size=    7653kB time=00:03:48.80 bitrate= 274.0kbits/s speed=0.999x    frame= 6808 fps= 30 q=31.0 size=    7665kB time=00:03:49.30 bitrate= 273.8kbits/s speed=0.999x    frame= 6823 fps= 30 q=31.0 size=    7678kB time=00:03:49.83 bitrate= 273.7kbits/s speed=0.999x    frame= 6837 fps= 30 q=31.0 size=    7691kB time=00:03:50.30 bitrate= 273.6kbits/s speed=0.999x    frame= 6852 fps= 30 q=31.0 size=    7704kB time=00:03:50.83 bitrate= 273.4kbits/s speed=0.999x    frame= 6867 fps= 30 q=31.0 size=    7726kB time=00:03:51.33 bitrate= 273.6kbits/s speed=0.999x    frame= 6869 fps= 30 q=31.0 size=    7727kB time=00:03:51.89 bitrate= 273.0kbits/s speed=   1x    frame= 6869 fps= 30 q=31.0 size=    7727kB time=00:03:52.42 bitrate= 272.3kbits/s speed=   1x    frame= 6900 fps= 30 q=31.0 size=    7756kB time=00:03:52.92 bitrate= 272.8kbits/s speed=   1x    frame= 6900 fps= 30 q=31.0 size=    7756kB time=00:03:53.40 bitrate= 272.2kbits/s speed=   1x    frame= 6930 fps= 30 q=31.0 size=    7792kB time=00:03:53.93 bitrate= 272.9kbits/s speed=   1x    frame= 6930 fps= 30 q=31.0 size=    7792kB time=00:03:54.41 bitrate= 272.3kbits/s speed=   1x    frame= 6957 fps= 30 q=31.0 size=    7818kB time=00:03:54.91 bitrate= 272.6kbits/s speed=   1x    frame= 6957 fps= 30 q=31.0 size=    7818kB time=00:03:55.44 bitrate= 272.0kbits/s speed=   1x    frame= 6986 fps= 30 q=31.0 size=    7855kB time=00:03:55.95 bitrate= 272.7kbits/s speed=   1x    frame= 6986 fps= 30 q=31.0 size=    7855kB time=00:03:56.45 bitrate= 272.2kbits/s speed=   1x    frame= 7014 fps= 30 q=31.0 size=    7884kB time=00:03:56.95 bitrate= 272.6kbits/s speed=   1x    frame= 7014 fps= 30 q=31.0 size=    7884kB time=00:03:57.46 bitrate= 272.0kbits/s speed=   1x    frame= 7044 fps= 30 q=31.0 size=    7916kB time=00:03:57.96 bitrate= 272.5kbits/s speed=   1x    frame= 7044 fps= 30 q=31.0 size=    7916kB time=00:03:58.47 bitrate= 271.9kbits/s speed=   1x    frame= 7075 fps= 30 q=31.0 size=    7954kB time=00:03:58.97 bitrate= 272.7kbits/s speed=   1x    frame= 7075 fps= 30 q=31.0 size=    7954kB time=00:03:59.47 bitrate= 272.1kbits/s speed=   1x    frame= 7106 fps= 30 q=31.0 size=    7994kB time=00:03:59.98 bitrate= 272.9kbits/s speed=   1x    frame= 7106 fps= 30 q=31.0 size=    7994kB time=00:04:00.48 bitrate= 272.3kbits/s speed=   1x    frame= 7137 fps= 30 q=31.0 size=    8021kB time=00:04:00.99 bitrate= 272.7kbits/s speed=   1x    frame= 7137 fps= 30 q=31.0 size=    8021kB time=00:04:01.49 bitrate= 272.1kbits/s speed=   1x    frame= 7168 fps= 30 q=31.0 size=    8061kB time=00:04:01.99 bitrate= 272.9kbits/s speed=   1x    frame= 7168 fps= 30 q=31.0 size=    8061kB time=00:04:02.50 bitrate= 272.3kbits/s speed=   1x    frame= 7198 fps= 30 q=31.0 size=    8096kB time=00:04:03.00 bitrate= 272.9kbits/s speed=   1x    frame= 7198 fps= 30 q=31.0 size=    8096kB time=00:04:03.53 bitrate= 272.3kbits/s speed=   1x    frame= 7229 fps= 30 q=31.0 size=    8133kB time=00:04:04.01 bitrate= 273.0kbits/s speed=   1x    frame= 7229 fps= 30 q=31.0 size=    8133kB time=00:04:04.51 bitrate= 272.5kbits/s speed=   1x    frame= 7260 fps= 30 q=31.0 size=    8159kB time=00:04:05.04 bitrate= 272.7kbits/s speed=   1x    frame= 7260 fps= 30 q=31.0 size=    8159kB time=00:04:05.52 bitrate= 272.2kbits/s speed=   1x    frame= 7291 fps= 30 q=31.0 size=    8195kB time=00:04:06.05 bitrate= 272.8kbits/s speed=   1x    frame= 7291 fps= 30 q=31.0 size=    8195kB time=00:04:06.53 bitrate= 272.3kbits/s speed=   1x    frame= 7322 fps= 30 q=31.0 size=    8231kB time=00:04:07.03 bitrate= 272.9kbits/s speed=   1x    frame= 7322 fps= 30 q=31.0 size=    8231kB time=00:04:07.56 bitrate= 272.4kbits/s speed=   1x    frame= 7353 fps= 30 q=31.0 size=    8258kB time=00:04:08.07 bitrate= 272.7kbits/s speed=   1x    frame= 7353 fps= 30 q=31.0 size=    8258kB time=00:04:08.55 bitrate= 272.2kbits/s speed=   1x    frame= 7384 fps= 30 q=31.0 size=    8295kB time=00:04:09.07 bitrate= 272.8kbits/s speed=   1x    frame= 7384 fps= 30 q=31.0 size=    8295kB time=00:04:09.58 bitrate= 272.3kbits/s speed=   1x    frame= 7415 fps= 30 q=31.0 size=    8323kB time=00:04:10.00 bitrate= 272.7kbits/s speed=0.999x    frame= 7415 fps= 30 q=31.0 size=    8323kB time=00:04:10.59 bitrate= 272.1kbits/s speed=   1x    frame= 7446 fps= 30 q=31.0 size=    8362kB time=00:04:11.03 bitrate= 272.9kbits/s speed=0.999x    frame= 7446 fps= 30 q=31.0 size=    8362kB time=00:04:11.59 bitrate= 272.3kbits/s speed=   1x    frame= 7476 fps= 30 q=31.0 size=    8390kB time=00:04:12.03 bitrate= 272.7kbits/s speed=0.999x    frame= 7477 fps= 30 q=24.8 size=    8399kB time=00:04:12.58 bitrate= 272.4kbits/s speed=   1x    frame= 7507 fps= 30 q=31.0 size=    8428kB time=00:04:13.06 bitrate= 272.8kbits/s speed=0.999x    frame= 7508 fps= 30 q=31.0 size=    8428kB time=00:04:13.61 bitrate= 272.2kbits/s speed=   1x    frame= 7537 fps= 30 q=24.8 size=    8467kB time=00:04:14.06 bitrate= 273.0kbits/s speed=0.999x    frame= 7539 fps= 30 q=31.0 size=    8468kB time=00:04:14.62 bitrate= 272.4kbits/s speed=   1x    frame= 7566 fps= 30 q=31.0 size=    8495kB time=00:04:15.06 bitrate= 272.8kbits/s speed=0.999x    frame= 7569 fps= 30 q=31.0 size=    8496kB time=00:04:15.63 bitrate= 272.3kbits/s speed=   1x    frame= 7597 fps= 30 q=24.8 size=    8537kB time=00:04:16.10 bitrate= 273.1kbits/s speed=0.999x    frame= 7601 fps= 30 q=31.0 size=    8538kB time=00:04:16.61 bitrate= 272.6kbits/s speed=   1x    frame= 7627 fps= 30 q=31.0 size=    8562kB time=00:04:17.10 bitrate= 272.8kbits/s speed=0.999x    frame= 7632 fps= 30 q=31.0 size=    8564kB time=00:04:17.62 bitrate= 272.3kbits/s speed=   1x    frame= 7656 fps= 30 q=31.0 size=    8588kB time=00:04:18.06 bitrate= 272.6kbits/s speed=0.999x    frame= 7663 fps= 30 q=31.0 size=    8598kB time=00:04:18.63 bitrate= 272.3kbits/s speed=   1x    frame= 7685 fps= 30 q=31.0 size=    8624kB time=00:04:19.10 bitrate= 272.7kbits/s speed=0.999x    frame= 7693 fps= 30 q=24.8 size=    8637kB time=00:04:19.63 bitrate= 272.5kbits/s speed=   1x    frame= 7716 fps= 30 q=31.0 size=    8661kB time=00:04:20.13 bitrate= 272.8kbits/s speed=   1x    frame= 7724 fps= 30 q=31.0 size=    8673kB time=00:04:20.64 bitrate= 272.6kbits/s speed=   1x    frame= 7745 fps= 30 q=31.0 size=    8704kB time=00:04:21.13 bitrate= 273.1kbits/s speed=0.999x    frame= 7755 fps= 30 q=31.0 size=    8720kB time=00:04:21.63 bitrate= 273.0kbits/s speed=0.999x    frame= 7773 fps= 30 q=31.0 size=    8737kB time=00:04:22.13 bitrate= 273.0kbits/s speed=0.999x    frame= 7786 fps= 30 q=31.0 size=    8750kB time=00:04:22.63 bitrate= 272.9kbits/s speed=0.999x    frame= 7803 fps= 30 q=31.0 size=    8772kB time=00:04:23.13 bitrate= 273.1kbits/s speed=0.999x    frame= 7816 fps= 30 q=31.0 size=    8784kB time=00:04:23.64 bitrate= 272.9kbits/s speed=0.999x    frame= 7833 fps= 30 q=31.0 size=    8797kB time=00:04:24.16 bitrate= 272.8kbits/s speed=   1x    frame= 7847 fps= 30 q=31.0 size=    8809kB time=00:04:24.65 bitrate= 272.7kbits/s speed=0.999x    frame= 7863 fps= 30 q=31.0 size=    8831kB time=00:04:25.16 bitrate= 272.8kbits/s speed=0.999x    frame= 7877 fps= 30 q=31.0 size=    8844kB time=00:04:25.66 bitrate= 272.7kbits/s speed=0.999x    frame= 7891 fps= 30 q=31.0 size=    8856kB time=00:04:26.16 bitrate= 272.6kbits/s speed=0.999x    frame= 7902 fps= 30 q=31.0 size=    8868kB time=00:04:26.71 bitrate= 272.4kbits/s speed=   1x    frame= 7902 fps= 30 q=31.0 size=    8868kB time=00:04:27.19 bitrate= 271.9kbits/s speed=   1x    frame= 7917 fps= 30 q=31.0 size=    8880kB time=00:04:27.65 bitrate= 271.8kbits/s speed=0.999x    frame= 7933 fps= 30 q=24.8 size=    8904kB time=00:04:28.20 bitrate= 271.9kbits/s speed=   1x    frame= 7943 fps= 30 q=31.0 size=    8910kB time=00:04:28.66 bitrate= 271.7kbits/s speed=0.999x    frame= 7964 fps= 30 q=31.0 size=    8934kB time=00:04:29.23 bitrate= 271.8kbits/s speed=   1x    frame= 7970 fps= 30 q=31.0 size=    8944kB time=00:04:29.67 bitrate= 271.7kbits/s speed=0.999x    frame= 7995 fps= 30 q=31.0 size=    8969kB time=00:04:30.24 bitrate= 271.9kbits/s speed=   1x    frame= 8005 fps= 30 q=24.8 size=    8981kB time=00:04:30.65 bitrate= 271.8kbits/s speed=0.999x    frame= 8026 fps= 30 q=31.0 size=    8996kB time=00:04:31.23 bitrate= 271.7kbits/s speed=   1x    frame= 8034 fps= 30 q=31.0 size=    9007kB time=00:04:31.66 bitrate= 271.6kbits/s speed=0.999x    frame= 8056 fps= 30 q=31.0 size=    9030kB time=00:04:32.23 bitrate= 271.7kbits/s speed=   1x    frame= 8063 fps= 30 q=31.0 size=    9032kB time=00:04:32.67 bitrate= 271.4kbits/s speed=0.999x    frame= 8087 fps= 30 q=31.0 size=    9056kB time=00:04:33.24 bitrate= 271.5kbits/s speed=   1x    frame= 8102 fps= 30 q=31.0 size=    9079kB time=00:04:33.67 bitrate= 271.7kbits/s speed=0.999x    frame= 8118 fps= 30 q=31.0 size=    9092kB time=00:04:34.25 bitrate= 271.6kbits/s speed=   1x    frame= 8134 fps= 30 q=31.0 size=    9104kB time=00:04:34.66 bitrate= 271.5kbits/s speed=0.999x    frame= 8149 fps= 30 q=24.8 size=    9125kB time=00:04:35.26 bitrate= 271.6kbits/s speed=   1x    frame= 8161 fps= 30 q=24.8 size=    9136kB time=00:04:35.67 bitrate= 271.5kbits/s speed=0.999x    frame= 8180 fps= 30 q=31.0 size=    9150kB time=00:04:36.27 bitrate= 271.3kbits/s speed=   1x    frame= 8199 fps= 30 q=31.0 size=    9173kB time=00:04:36.67 bitrate= 271.6kbits/s speed=0.999x    frame= 8211 fps= 30 q=31.0 size=    9184kB time=00:04:37.27 bitrate= 271.3kbits/s speed=   1x    frame= 8232 fps= 30 q=31.0 size=    9201kB time=00:04:37.68 bitrate= 271.4kbits/s speed=0.999x    frame= 8242 fps= 30 q=31.0 size=    9213kB time=00:04:38.31 bitrate= 271.2kbits/s speed=   1x    frame= 8262 fps= 30 q=31.0 size=    9238kB time=00:04:38.69 bitrate= 271.5kbits/s speed=0.999x    frame= 8273 fps= 30 q=31.0 size=    9251kB time=00:04:39.29 bitrate= 271.3kbits/s speed=   1x    frame= 8295 fps= 30 q=31.0 size=    9282kB time=00:04:39.67 bitrate= 271.9kbits/s speed=0.999x    frame= 8304 fps= 30 q=31.0 size=    9286kB time=00:04:40.30 bitrate= 271.4kbits/s speed=   1x    frame= 8316 fps= 30 q=31.0 size=    9299kB time=00:04:40.68 bitrate= 271.4kbits/s speed=0.999x    frame= 8335 fps= 30 q=31.0 size=    9322kB time=00:04:41.31 bitrate= 271.5kbits/s speed=   1x    frame= 8350 fps= 30 q=31.0 size=    9337kB time=00:04:41.69 bitrate= 271.5kbits/s speed=0.999x    frame= 8366 fps= 30 q=31.0 size=    9360kB time=00:04:42.31 bitrate= 271.6kbits/s speed=   1x    frame= 8388 fps= 30 q=31.0 size=    9376kB time=00:04:42.76 bitrate= 271.6kbits/s speed=0.999x    frame= 8397 fps= 30 q=31.0 size=    9389kB time=00:04:43.30 bitrate= 271.5kbits/s speed=   1x    frame= 8418 fps= 30 q=31.0 size=    9418kB time=00:04:43.76 bitrate= 271.9kbits/s speed=0.999x    frame= 8427 fps= 30 q=31.0 size=    9431kB time=00:04:44.33 bitrate= 271.7kbits/s speed=   1x    frame= 8448 fps= 30 q=31.0 size=    9449kB time=00:04:44.80 bitrate= 271.8kbits/s speed=   1x    frame= 8458 fps= 30 q=31.0 size=    9462kB time=00:04:45.34 bitrate= 271.7kbits/s speed=   1x    frame= 8478 fps= 30 q=31.0 size=    9488kB time=00:04:45.80 bitrate= 272.0kbits/s speed=0.999x    frame= 8488 fps= 30 q=31.0 size=    9500kB time=00:04:46.37 bitrate= 271.8kbits/s speed=   1x    frame= 8508 fps= 30 q=31.0 size=    9516kB time=00:04:46.83 bitrate= 271.8kbits/s speed=   1x    frame= 8518 fps= 30 q=31.0 size=    9528kB time=00:04:47.35 bitrate= 271.6kbits/s speed=   1x    frame= 8536 fps= 30 q=31.0 size=    9553kB time=00:04:47.80 bitrate= 271.9kbits/s speed=0.999x    frame= 8547 fps= 30 q=31.0 size=    9566kB time=00:04:48.36 bitrate= 271.8kbits/s speed=   1x    frame= 8565 fps= 30 q=31.0 size=    9581kB time=00:04:48.83 bitrate= 271.7kbits/s speed=   1x    frame= 8577 fps= 30 q=31.0 size=    9595kB time=00:04:49.39 bitrate= 271.6kbits/s speed=   1x    frame= 8595 fps= 30 q=31.0 size=    9619kB time=00:04:49.86 bitrate= 271.9kbits/s speed=   1x    frame= 8608 fps= 30 q=31.0 size=    9632kB time=00:04:50.40 bitrate= 271.7kbits/s speed=   1x    frame= 8625 fps= 30 q=31.0 size=    9646kB time=00:04:50.86 bitrate= 271.7kbits/s speed=   1x    frame= 8639 fps= 30 q=31.0 size=    9660kB time=00:04:51.33 bitrate= 271.6kbits/s speed=0.999x    frame= 8655 fps= 30 q=31.0 size=    9682kB time=00:04:51.86 bitrate= 271.8kbits/s speed=   1x    frame= 8670 fps= 30 q=31.0 size=    9696kB time=00:04:52.36 bitrate= 271.7kbits/s speed=   1x    frame= 8685 fps= 30 q=31.0 size=    9710kB time=00:04:52.86 bitrate= 271.6kbits/s speed=   1x    frame= 8701 fps= 30 q=24.8 size=    9734kB time=00:04:53.40 bitrate= 271.8kbits/s speed=   1x    frame= 8716 fps= 30 q=31.0 size=    9747kB time=00:04:53.90 bitrate= 271.7kbits/s speed=   1x    frame= 8731 fps= 30 q=31.0 size=    9762kB time=00:04:54.40 bitrate= 271.6kbits/s speed=   1x    frame= 8746 fps= 30 q=31.0 size=    9776kB time=00:04:54.90 bitrate= 271.6kbits/s speed=   1x    frame= 8761 fps= 30 q=24.8 size=    9800kB time=00:04:55.40 bitrate= 271.8kbits/s speed=   1x    frame= 8776 fps= 30 q=31.0 size=    9813kB time=00:04:55.90 bitrate= 271.7kbits/s speed=   1x    frame= 8791 fps= 30 q=31.0 size=    9827kB time=00:04:56.40 bitrate= 271.6kbits/s speed=   1x    frame= 8807 fps= 30 q=31.0 size=    9841kB time=00:04:56.93 bitrate= 271.5kbits/s speed=   1x    frame= 8822 fps= 30 q=31.0 size=    9866kB time=00:04:57.43 bitrate= 271.7kbits/s speed=   1x    frame= 8837 fps= 30 q=31.0 size=    9879kB time=00:04:57.93 bitrate= 271.6kbits/s speed=   1x    